<svg width="123" height="19" viewBox="0 0 123 19" fill="none" xmlns="http://www.w3.org/2000/svg">
<path d="M0.368 18V1.2H8.456C10.024 1.2 11.376 1.456 12.512 1.968C13.664 2.48 14.552 3.216 15.176 4.176C15.8 5.12 16.112 6.24 16.112 7.536C16.112 8.832 15.8 9.952 15.176 10.896C14.552 11.84 13.664 12.576 12.512 13.104C11.376 13.616 10.024 13.872 8.456 13.872H3.512L6.032 11.448V18H0.368ZM6.032 12.072L3.512 9.504H8.096C8.88 9.504 9.456 9.328 9.824 8.976C10.208 8.624 10.4 8.144 10.4 7.536C10.4 6.928 10.208 6.448 9.824 6.096C9.456 5.744 8.88 5.568 8.096 5.568H3.512L6.032 3V12.072ZM25.0496 18.24C23.4496 18.24 22.0496 17.944 20.8496 17.352C19.6656 16.76 18.7456 15.952 18.0896 14.928C17.4336 13.888 17.1056 12.72 17.1056 11.424C17.1056 10.096 17.4256 8.92 18.0656 7.896C18.7216 6.872 19.6096 6.072 20.7296 5.496C21.8656 4.92 23.1376 4.632 24.5456 4.632C25.8416 4.632 27.0336 4.888 28.1216 5.4C29.2256 5.912 30.1056 6.672 30.7616 7.68C31.4336 8.688 31.7696 9.936 31.7696 11.424C31.7696 11.616 31.7616 11.832 31.7456 12.072C31.7296 12.296 31.7136 12.504 31.6976 12.696H21.5936V10.08H28.8176L26.7776 10.776C26.7776 10.264 26.6816 9.832 26.4896 9.48C26.3136 9.112 26.0656 8.832 25.7456 8.64C25.4256 8.432 25.0416 8.328 24.5936 8.328C24.1456 8.328 23.7536 8.432 23.4176 8.64C23.0976 8.832 22.8496 9.112 22.6736 9.48C22.4976 9.832 22.4096 10.264 22.4096 10.776V11.592C22.4096 12.152 22.5216 12.632 22.7456 13.032C22.9696 13.432 23.2896 13.736 23.7056 13.944C24.1216 14.136 24.6256 14.232 25.2176 14.232C25.8256 14.232 26.3216 14.152 26.7056 13.992C27.1056 13.832 27.5216 13.592 27.9536 13.272L30.7856 16.128C30.1456 16.816 29.3536 17.344 28.4096 17.712C27.4816 18.064 26.3616 18.24 25.0496 18.24ZM39.8173 18.24C38.0093 18.24 36.6013 17.808 35.5933 16.944C34.5853 16.064 34.0813 14.72 34.0813 12.912V1.92H39.5053V12.864C39.5053 13.264 39.6093 13.576 39.8173 13.8C40.0413 14.024 40.3133 14.136 40.6333 14.136C41.0973 14.136 41.5053 14.016 41.8573 13.776L43.1533 17.544C42.7373 17.784 42.2333 17.96 41.6413 18.072C41.0653 18.184 40.4573 18.24 39.8173 18.24ZM32.2812 9.552V5.592H42.1933V9.552H32.2812ZM50.9523 18.384C49.5443 18.384 48.1843 18.224 46.8723 17.904C45.5603 17.584 44.4803 17.168 43.6323 16.656L45.4563 12.528C46.2563 12.992 47.1443 13.368 48.1203 13.656C49.1123 13.928 50.0723 14.064 51.0003 14.064C51.5443 14.064 51.9683 14.032 52.2723 13.968C52.5923 13.888 52.8243 13.784 52.9683 13.656C53.1123 13.512 53.1843 13.344 53.1843 13.152C53.1843 12.848 53.0163 12.608 52.6803 12.432C52.3443 12.256 51.8963 12.112 51.3363 12C50.7923 11.872 50.1923 11.744 49.5363 11.616C48.8803 11.472 48.2163 11.288 47.5443 11.064C46.8883 10.84 46.2803 10.544 45.7203 10.176C45.1763 9.808 44.7363 9.328 44.4003 8.736C44.0643 8.128 43.8963 7.376 43.8963 6.48C43.8963 5.44 44.1843 4.496 44.7603 3.648C45.3523 2.784 46.2243 2.096 47.3763 1.584C48.5443 1.072 49.9923 0.816 51.7203 0.816C52.8563 0.816 53.9763 0.935999 55.0803 1.176C56.1843 1.416 57.1763 1.784 58.0563 2.28L56.3523 6.384C55.5203 5.968 54.7123 5.656 53.9283 5.448C53.1603 5.24 52.4083 5.136 51.6723 5.136C51.1283 5.136 50.6963 5.184 50.3763 5.28C50.0563 5.376 49.8243 5.504 49.6803 5.664C49.5523 5.824 49.4883 6 49.4883 6.192C49.4883 6.48 49.6563 6.712 49.9923 6.888C50.3283 7.048 50.7683 7.184 51.3123 7.296C51.8723 7.408 52.4803 7.528 53.1363 7.656C53.8083 7.784 54.4723 7.96 55.1283 8.184C55.7843 8.408 56.3843 8.704 56.9283 9.072C57.4883 9.44 57.9363 9.92 58.2723 10.512C58.6083 11.104 58.7763 11.84 58.7763 12.72C58.7763 13.744 58.4803 14.688 57.8883 15.552C57.3123 16.4 56.4483 17.088 55.2963 17.616C54.1443 18.128 52.6963 18.384 50.9523 18.384ZM67.3498 18.24C65.8458 18.24 64.5098 17.952 63.3418 17.376C62.1738 16.8 61.2538 16 60.5818 14.976C59.9258 13.936 59.5978 12.752 59.5978 11.424C59.5978 10.096 59.9258 8.92 60.5818 7.896C61.2538 6.872 62.1738 6.072 63.3418 5.496C64.5098 4.92 65.8458 4.632 67.3498 4.632C68.9498 4.632 70.3178 4.976 71.4538 5.664C72.5898 6.352 73.3738 7.304 73.8058 8.52L69.6058 10.584C69.3338 9.976 68.9978 9.536 68.5978 9.264C68.2138 8.992 67.7898 8.856 67.3258 8.856C66.9258 8.856 66.5498 8.952 66.1978 9.144C65.8618 9.336 65.5898 9.624 65.3818 10.008C65.1898 10.376 65.0938 10.848 65.0938 11.424C65.0938 12 65.1898 12.48 65.3818 12.864C65.5898 13.248 65.8618 13.536 66.1978 13.728C66.5498 13.92 66.9258 14.016 67.3258 14.016C67.7898 14.016 68.2138 13.88 68.5978 13.608C68.9978 13.336 69.3338 12.896 69.6058 12.288L73.8058 14.352C73.3738 15.568 72.5898 16.52 71.4538 17.208C70.3178 17.896 68.9498 18.24 67.3498 18.24ZM81.8782 18.24C80.3902 18.24 79.0702 17.952 77.9182 17.376C76.7822 16.784 75.8862 15.976 75.2302 14.952C74.5742 13.928 74.2462 12.752 74.2462 11.424C74.2462 10.096 74.5742 8.92 75.2302 7.896C75.8862 6.872 76.7822 6.072 77.9182 5.496C79.0702 4.92 80.3902 4.632 81.8782 4.632C83.3662 4.632 84.6862 4.92 85.8382 5.496C86.9902 6.072 87.8862 6.872 88.5262 7.896C89.1822 8.92 89.5102 10.096 89.5102 11.424C89.5102 12.752 89.1822 13.928 88.5262 14.952C87.8862 15.976 86.9902 16.784 85.8382 17.376C84.6862 17.952 83.3662 18.24 81.8782 18.24ZM81.8782 14.016C82.2782 14.016 82.6382 13.92 82.9582 13.728C83.2782 13.536 83.5342 13.248 83.7262 12.864C83.9182 12.464 84.0142 11.984 84.0142 11.424C84.0142 10.848 83.9182 10.376 83.7262 10.008C83.5342 9.624 83.2782 9.336 82.9582 9.144C82.6382 8.952 82.2782 8.856 81.8782 8.856C81.4782 8.856 81.1182 8.952 80.7982 9.144C80.4782 9.336 80.2222 9.624 80.0302 10.008C79.8382 10.376 79.7422 10.848 79.7422 11.424C79.7422 11.984 79.8382 12.464 80.0302 12.864C80.2222 13.248 80.4782 13.536 80.7982 13.728C81.1182 13.92 81.4782 14.016 81.8782 14.016ZM98.1438 18.24C96.6558 18.24 95.3358 17.952 94.1838 17.376C93.0478 16.784 92.1518 15.976 91.4958 14.952C90.8398 13.928 90.5118 12.752 90.5118 11.424C90.5118 10.096 90.8398 8.92 91.4958 7.896C92.1518 6.872 93.0478 6.072 94.1838 5.496C95.3358 4.92 96.6558 4.632 98.1438 4.632C99.6318 4.632 100.952 4.92 102.104 5.496C103.256 6.072 104.152 6.872 104.792 7.896C105.448 8.92 105.776 10.096 105.776 11.424C105.776 12.752 105.448 13.928 104.792 14.952C104.152 15.976 103.256 16.784 102.104 17.376C100.952 17.952 99.6318 18.24 98.1438 18.24ZM98.1438 14.016C98.5438 14.016 98.9038 13.92 99.2238 13.728C99.5438 13.536 99.7998 13.248 99.9918 12.864C100.184 12.464 100.28 11.984 100.28 11.424C100.28 10.848 100.184 10.376 99.9918 10.008C99.7998 9.624 99.5438 9.336 99.2238 9.144C98.9038 8.952 98.5438 8.856 98.1438 8.856C97.7438 8.856 97.3838 8.952 97.0638 9.144C96.7438 9.336 96.4878 9.624 96.2958 10.008C96.1038 10.376 96.0078 10.848 96.0078 11.424C96.0078 11.984 96.1038 12.464 96.2958 12.864C96.4878 13.248 96.7438 13.536 97.0638 13.728C97.3838 13.92 97.7438 14.016 98.1438 14.016ZM116.233 18.24C115.033 18.24 114.065 18 113.329 17.52C112.593 17.04 112.057 16.296 111.721 15.288C111.401 14.28 111.241 12.992 111.241 11.424C111.241 9.872 111.417 8.6 111.769 7.608C112.121 6.6 112.665 5.856 113.401 5.376C114.153 4.88 115.097 4.632 116.233 4.632C117.385 4.632 118.441 4.904 119.401 5.448C120.361 5.992 121.129 6.776 121.705 7.8C122.281 8.808 122.569 10.016 122.569 11.424C122.569 12.832 122.281 14.048 121.705 15.072C121.129 16.08 120.361 16.864 119.401 17.424C118.441 17.968 117.385 18.24 116.233 18.24ZM107.473 18V0.191999H112.897V6.624L112.657 11.424L112.633 16.224V18H107.473ZM114.937 14.016C115.337 14.016 115.697 13.92 116.017 13.728C116.337 13.536 116.593 13.248 116.785 12.864C116.977 12.464 117.073 11.984 117.073 11.424C117.073 10.848 116.977 10.376 116.785 10.008C116.593 9.624 116.337 9.336 116.017 9.144C115.697 8.952 115.337 8.856 114.937 8.856C114.537 8.856 114.177 8.952 113.857 9.144C113.537 9.336 113.281 9.624 113.089 10.008C112.897 10.376 112.801 10.848 112.801 11.424C112.801 11.984 112.897 12.464 113.089 12.864C113.281 13.248 113.537 13.536 113.857 13.728C114.177 13.92 114.537 14.016 114.937 14.016Z" fill="#E91E63"/>
</svg>
